<?xml version="1.0" encoding="UTF-8"?>
<svg version="1.1" xmlns="http://www.w3.org/2000/svg" width="145" height="148">
<!-- <rect width="125" height="128" fill="#fff"/> -->
<circle cx="72.5" cy="74" r="72" fill="#fff"/>
<path d="M0 0 C1.00474365 0.50781006 1.00474365 0.50781006 2.02978516 1.02587891 C18.40590823 9.31780964 31.53449404 18.94942997 38.2734375 36.67578125 C43.54473218 53.53825618 40.48369733 72.68338024 33.1875 88.3125 C26.2541037 101.38195203 15.9939206 111.9331309 3 119 C2.11699219 119.50917969 1.23398438 120.01835938 0.32421875 120.54296875 C-7.31887179 124.23523306 -14.67568906 124.51667998 -23.0625 124.625 C-24.15054932 124.64812256 -25.23859863 124.67124512 -26.35961914 124.69506836 C-34.52323101 124.61689761 -40.72602849 122.61581208 -48 119 C-48.75192627 118.63406738 -49.50385254 118.26813477 -50.27856445 117.89111328 C-65.42955604 110.2349982 -77.17569996 100.65131647 -83.4375 84.375 C-88.32544482 66.70645486 -85.91631429 47.39575639 -77.75 31.25 C-70.54398045 18.64329065 -61.19022889 8.49472842 -48.375 1.5625 C-47.4612561 1.0672583 -47.4612561 1.0672583 -46.52905273 0.56201172 C-33.1631037 -6.29775157 -13.32860455 -7.15148575 0 0 Z M-55.125 28.5625 C-66.79514611 43.8070722 -72.17521369 61.87453625 -70 81 C-68.30169394 90.26126615 -64.91406635 98.61924519 -59 106 C-58.58878906 106.58265625 -58.17757812 107.1653125 -57.75390625 107.765625 C-53.71908834 113.21593641 -48.44529136 114.89008578 -42 116 C-27.86109113 117.4232235 -13.44897942 112.68352103 -2.3828125 103.9296875 C0.17228969 101.70076856 2.59672877 99.39123481 5 97 C6.04994141 96.00226563 6.04994141 96.00226563 7.12109375 94.984375 C18.92080213 82.93165143 24.79351496 65.44739179 25.25 48.875 C25.0716444 33.30455619 19.65136108 20.58110709 9.44140625 8.9609375 C-10.42148136 -6.99293383 -42.06572763 13.41578058 -55.125 28.5625 Z " fill="#1A1C1D" transform="translate(95,14)"/>
<path d="M0 0 C3.16418537 2.55827754 5.76681718 5.07623647 7 9 C7.45989183 13.7522156 7.52078851 15.99699991 5.3125 20.25 C-0.07206908 26.65327134 -0.07206908 26.65327134 -4.51953125 27.453125 C-9.56731081 27.75695852 -13.08100392 27.53869906 -17.0625 24.25 C-20.57940987 20.84487456 -21.90185884 18.01412531 -22.375 13.125 C-22.25407123 8.78768794 -20.81119712 6.34304522 -18 3 C-12.09048507 -2.46630131 -7.41057581 -2.6995669 0 0 Z " fill="#397099" transform="translate(80,62)"/>
<path d="M0 0 C0.08636719 0.66386719 0.17273437 1.32773437 0.26171875 2.01171875 C0.92885604 6.20427876 1.64104225 9.41370234 3.875 13.0625 C8.63246856 16.0121305 13.49786067 15.90347124 19 16 C18.42350077 18.8001391 18.01169653 19.98596416 16.125 22.25 C11.45836997 24.86331282 7.22279098 25.00122173 2 24 C-2.29058939 21.63750851 -5.14416495 18.53552211 -7 14 C-7.42168329 8.68679052 -7.51143152 5.29174963 -4 1 C-1 0 -1 0 0 0 Z " fill="#215F8D" transform="translate(65,65)"/>
<path d="M0 0 C3.16418537 2.55827754 5.76681718 5.07623647 7 9 C7.15035617 11.69085704 7.08999513 14.30014607 7 17 C6.67 17 6.34 17 6 17 C5.67 15.02 5.34 13.04 5 11 C4.34 11.66 3.68 12.32 3 13 C-3.82296651 13.66028708 -3.82296651 13.66028708 -7.5625 11.5625 C-9.74411826 7.67352831 -8.83591691 4.25227297 -8 0 C-9.65 0 -11.3 0 -13 0 C-8.39358002 -2.76803015 -4.85950195 -1.84834628 0 0 Z " fill="#A5BED1" transform="translate(80,62)"/>
<path d="M0 0 C1.134375 0.020625 2.26875 0.04125 3.4375 0.0625 C3.1075 3.0325 2.7775 6.0025 2.4375 9.0625 C3.4275 9.3925 4.4175 9.7225 5.4375 10.0625 C5.7675 10.7225 6.0975 11.3825 6.4375 12.0625 C8.3246875 12.124375 8.3246875 12.124375 10.25 12.1875 C10.95769531 12.21070312 11.66539063 12.23390625 12.39453125 12.2578125 C14.75109719 12.19504462 14.75109719 12.19504462 17.4375 10.0625 C16.06766497 13.22365776 15.4484362 14.0552092 12.4375 16.0625 C10.5 16.328125 10.5 16.328125 8.4375 16.3125 C7.4165625 16.32023437 7.4165625 16.32023437 6.375 16.328125 C4.4375 16.0625 4.4375 16.0625 1.4375 14.0625 C-0.31331885 11.43627173 -0.61444415 9.63210565 -1 6.4375 C-1.185625 5.32375 -1.37125 4.21 -1.5625 3.0625 C-2.5525 2.4025 -3.5425 1.7425 -4.5625 1.0625 C-3.5625 0.0625 -3.5625 0.0625 0 0 Z " fill="#6993B2" transform="translate(68.5625,61.9375)"/>
<path d="M0 0 C2.9719385 1.12451727 5.33440687 2.22293791 8 4 C7.67 4.66 7.34 5.32 7 6 C6.731875 6.680625 6.46375 7.36125 6.1875 8.0625 C5 10 5 10 3.0625 10.875 C1 11 1 11 -2 9 C-1.51421457 5.87709365 -1.0013988 3.00419641 0 0 Z " fill="#D6E1E9" transform="translate(76,61)"/>
<path d="M0 0 C0.125 3.375 0.125 3.375 0 7 C-0.66 7.66 -1.32 8.32 -2 9 C-2.33 8.01 -2.66 7.02 -3 6 C-3.68707031 6.04640625 -4.37414062 6.0928125 -5.08203125 6.140625 C-5.98308594 6.17671875 -6.88414063 6.2128125 -7.8125 6.25 C-8.70582031 6.29640625 -9.59914063 6.3428125 -10.51953125 6.390625 C-13 6 -13 6 -14.82421875 3.984375 C-15.21222656 3.32953125 -15.60023437 2.6746875 -16 2 C-15.01 2.33 -14.02 2.66 -13 3 C-7.47866558 3.49722937 -7.47866558 3.49722937 -2.5625 1.5 C-1 0 -1 0 0 0 Z " fill="#4F80A5" transform="translate(86,74)"/>
<path d="M0 0 C0.66 0.33 1.32 0.66 2 1 C-2.95 5.95 -7.9 10.9 -13 16 C-13.66 15.67 -14.32 15.34 -15 15 C-10.28109462 9.59947495 -5.69641143 4.38185495 0 0 Z " fill="#5F6161" transform="translate(39,20)"/>
<path d="M0 0 C0.99 0.66 1.98 1.32 3 2 C3.40843923 4.71203652 3.13336867 7.2437142 3 10 C2.67 10 2.34 10 2 10 C1.67 8.02 1.34 6.04 1 4 C0.34 4.66 -0.32 5.32 -1 6 C-3.68839385 6.26991906 -6.29141936 6.08737357 -9 6 C-9.33 5.34 -9.66 4.68 -10 4 C-8.906875 3.896875 -7.81375 3.79375 -6.6875 3.6875 C-3.14440371 3.02692273 -2.06756277 2.7972908 0 0 Z " fill="#A3BDCF" transform="translate(84,69)"/>
<path d="M0 0 C1.134375 0.020625 2.26875 0.04125 3.4375 0.0625 C2.7775 3.6925 2.1175 7.3225 1.4375 11.0625 C0.7775 10.7325 0.1175 10.4025 -0.5625 10.0625 C-0.706875 8.928125 -0.85125 7.79375 -1 6.625 C-1.185625 5.449375 -1.37125 4.27375 -1.5625 3.0625 C-2.5525 2.4025 -3.5425 1.7425 -4.5625 1.0625 C-3.5625 0.0625 -3.5625 0.0625 0 0 Z " fill="#6792B1" transform="translate(68.5625,61.9375)"/>
<path d="M0 0 C1.33332095 2.6666419 0.67102033 4.16680303 0 7 C0.99 7.33 1.98 7.66 3 8 C3.33 8.66 3.66 9.32 4 10 C7.02934491 10.65772428 7.02934491 10.65772428 10 11 C10 11.33 10 11.66 10 12 C6.53906866 12.19966912 3.7985497 12.32761013 0.5625 11 C-1.95636861 7.77584818 -1.32341791 5.01038204 -1 1 C-0.67 0.67 -0.34 0.34 0 0 Z " fill="#83A6BF" transform="translate(71,64)"/>
<path d="M0 0 C1.32 0.66 2.64 1.32 4 2 C2.7181368 4.5637264 1.44099602 5.50828021 -1 7 C-3.75 7.1875 -3.75 7.1875 -6 7 C-6.33 6.34 -6.66 5.68 -7 5 C-5.35 5 -3.7 5 -2 5 C-1.34 3.35 -0.68 1.7 0 0 Z " fill="#BACDDB" transform="translate(82,66)"/>
<path d="M0 0 C2.475 0.99 2.475 0.99 5 2 C4.67 2.99 4.34 3.98 4 5 C2.35 5 0.7 5 -1 5 C-0.67 3.35 -0.34 1.7 0 0 Z " fill="#C6D6E1" transform="translate(76,61)"/>
<path d="M0 0 C2.31 0.33 4.62 0.66 7 1 C7 1.33 7 1.66 7 2 C5.35 2 3.7 2 2 2 C2.33 2.99 2.66 3.98 3 5 C0.525 4.01 0.525 4.01 -2 3 C-1.34 2.67 -0.68 2.34 0 2 C0 1.34 0 0.68 0 0 Z " fill="#898B8B" transform="translate(46,128)"/>
<path d="M0 0 C2.475 0.99 2.475 0.99 5 2 C4.67 2.99 4.34 3.98 4 5 C1.03 4.505 1.03 4.505 -2 4 C-1.34 3.67 -0.68 3.34 0 3 C0 2.01 0 1.02 0 0 Z " fill="#7F8080" transform="translate(97,16)"/>
</svg>
